<svg width="512" height="512" viewBox="0 0 512 512" fill="none" xmlns="http://www.w3.org/2000/svg">
<g clip-path="url(#clip0_7_153)">
<path d="M0 60C0 26.8629 26.8629 0 60 0H156C189.137 0 216 26.8629 216 60V156C216 189.137 189.137 216 156 216H60C26.8629 216 0 189.137 0 156V60Z" fill="black"/>
<path d="M296 60C296 26.8629 322.863 0 356 0H452C485.137 0 512 26.8629 512 60V156C512 189.137 485.137 216 452 216H356C322.863 216 296 189.137 296 156V60Z" fill="black"/>
<path d="M0 356C0 322.863 26.8629 296 60 296H156C189.137 296 216 322.863 216 356V452C216 485.137 189.137 512 156 512H60C26.8629 512 0 485.137 0 452V356Z" fill="black"/>
<path d="M296 356C296 322.863 322.863 296 356 296H452C485.137 296 512 322.863 512 356V452C512 485.137 485.137 512 452 512H356C322.863 512 296 485.137 296 452V356Z" fill="black"/>
</g>
<defs>
<clipPath id="clip0_7_153">
<rect width="512" height="512" fill="white"/>
</clipPath>
</defs>
</svg>
