<svg width="32" height="32" viewBox="0 0 32 32" fill="none" xmlns="http://www.w3.org/2000/svg">
<g class="color-primary">
<path d="M9.53837 9.53846C8.34883 9.53846 7.38452 8.57415 7.38452 7.38462V2H11.6922V7.38462C11.6922 8.57415 10.7279 9.53846 9.53837 9.53846Z"/>
<path d="M9.53835 23.5385C8.94358 23.5385 8.46143 23.0563 8.46143 22.4615C8.46143 21.8668 8.94358 21.3846 9.53835 21.3846H22.4614C23.0562 21.3846 23.5383 21.8668 23.5383 22.4615C23.5383 23.0563 23.0562 23.5385 22.4614 23.5385H9.53835Z"/>
<path d="M9.53835 27.8462C8.94358 27.8462 8.46143 27.364 8.46143 26.7692C8.46143 26.1745 8.94358 25.6923 9.53835 25.6923H22.4614C23.0562 25.6923 23.5383 26.1745 23.5383 26.7692C23.5383 27.364 23.0562 27.8462 22.4614 27.8462H9.53835Z"/>
</g>
<g class="color-secondary">
<path d="M2 26.7692V5.23077C2 3.44647 3.44646 2 5.23077 2V9.53846C5.23077 10.728 6.19508 11.6923 7.38462 11.6923H19.2308C20.4203 11.6923 21.3846 10.728 21.3846 9.53846V2H24.0003L30 7.99965V26.7692C30 28.5535 28.5535 30 26.7692 30H25.6923V20.3077C25.6923 19.1182 24.728 18.1538 23.5385 18.1538H8.46154C7.272 18.1538 6.30769 19.1182 6.30769 20.3077V30H5.23077C3.44647 30 2 28.5535 2 26.7692Z"/>
</g>
</svg>
